<svg xmlns="http://www.w3.org/2000/svg" xmlns:xlink="http://www.w3.org/1999/xlink" width="500" zoomAndPan="magnify" viewBox="0 0 375 74.999997" height="100" preserveAspectRatio="xMidYMid meet" version="1.0"><defs><g/><clipPath id="a91d142b61"><path d="M 5.570312 4.109375 L 79.820312 4.109375 L 79.820312 70.859375 L 5.570312 70.859375 Z M 5.570312 4.109375 " clip-rule="nonzero"/></clipPath></defs><rect x="-37.5" width="450" fill="#ffffff" y="-7.5" height="89.999996" fill-opacity="1"/><rect x="-37.5" width="450" fill="#ffffff" y="-7.5" height="89.999996" fill-opacity="1"/><rect x="-37.5" width="450" fill="#a6a6a6" y="-7.5" height="89.999996" fill-opacity="1"/><g clip-path="url(#a91d142b61)"><path fill="#f6b024" d="M 78.011719 55.050781 L 74.480469 55.050781 L 72.714844 51.539062 L 74.480469 49.78125 L 72.714844 44.511719 L 69.179688 42.753906 L 65.871094 40.140625 L 63.882812 37.484375 L 63.882812 33.972656 L 67.414062 30.460938 L 63.882812 26.945312 L 62.117188 28.703125 L 60.351562 26.945312 L 60.351562 23.433594 L 56.820312 21.675781 L 52.683594 16.40625 L 49.757812 11.136719 L 49.757812 9.378906 L 51.523438 7.625 L 49.757812 5.867188 L 48.875 4.109375 L 5.613281 4.109375 L 7.378906 5.867188 L 7.378906 7.625 L 7.765625 10.308594 L 10.910156 14.652344 L 12.5625 14.730469 L 12.675781 18.164062 L 10.910156 18.164062 L 10.910156 19.921875 L 12.675781 23.433594 L 14.441406 25.191406 L 16.207031 25.191406 L 17.972656 32.214844 L 16.207031 58.566406 L 16.207031 63.835938 L 67.414062 63.835938 L 69.179688 65.589844 L 69.179688 67.347656 L 65.648438 69.105469 L 65.648438 70.859375 L 73.597656 70.859375 L 74.480469 67.347656 L 76.246094 63.835938 L 79.777344 60.320312 L 79.777344 56.808594 Z M 78.011719 55.050781 " fill-opacity="1" fill-rule="nonzero"/></g><g fill="#ffffff" fill-opacity="1"><g transform="translate(94.703028, 48.749995)"><g><path d="M 8.820312 -5.265625 L 8.820312 -31.5 L 3.554688 -31.5 L 3.554688 0 L 20.476562 0 L 20.476562 -5.265625 Z M 8.820312 -5.265625 "/></g></g></g><g fill="#ffffff" fill-opacity="1"><g transform="translate(124.223, 48.749995)"><g><path d="M 8.820312 -26.234375 L 24.570312 -26.234375 L 24.570312 -31.5 L 3.554688 -31.5 L 3.554688 0 L 24.570312 0 L 24.570312 -5.265625 L 8.820312 -5.265625 L 8.820312 -13.140625 L 21.914062 -13.140625 L 21.914062 -18.359375 L 8.820312 -18.359375 Z M 8.820312 -26.234375 "/></g></g></g><g fill="#ffffff" fill-opacity="1"><g transform="translate(157.657972, 48.749995)"><g><path d="M 19.351562 -26.683594 L 19.351562 -31.5 L 0.898438 -31.5 L 0.898438 -26.683594 L 7.515625 -26.683594 L 7.515625 0 L 12.734375 0 L 12.734375 -26.683594 Z M 19.351562 -26.683594 "/></g></g></g><g fill="#ffffff" fill-opacity="1"><g transform="translate(182.111711, 48.00001)"><g><path d="M 37.660156 0 L 37.660156 -31.539062 L 32.304688 -31.539062 L 20.832031 -7.019531 L 8.863281 -31.539062 L 3.507812 -31.539062 L 3.507812 0 L 8.773438 0 L 8.773438 -19.75 L 18.402344 0 L 23.351562 0 L 32.394531 -19.347656 L 32.394531 0 Z M 37.660156 0 "/></g></g></g><g fill="#ffffff" fill-opacity="1"><g transform="translate(223.321024, 48.00001)"><g><path d="M 14.261719 -8.546875 C 20.695312 -8.546875 25.960938 -13.8125 25.960938 -20.246094 C 25.960938 -26.679688 20.695312 -31.945312 14.261719 -31.945312 C 7.828125 -31.945312 2.566406 -26.679688 2.566406 -20.246094 C 2.566406 -13.8125 7.828125 -8.546875 14.261719 -8.546875 Z M 14.261719 -26.726562 C 17.863281 -26.726562 20.742188 -23.847656 20.742188 -20.246094 C 20.742188 -16.648438 17.863281 -13.769531 14.261719 -13.769531 C 10.664062 -13.769531 7.785156 -16.648438 7.785156 -20.246094 C 7.785156 -23.847656 10.664062 -26.726562 14.261719 -26.726562 Z M 24.519531 0 L 24.519531 -5.21875 L 3.734375 -5.21875 L 3.734375 0 Z M 24.519531 0 "/></g></g></g><g fill="#ffffff" fill-opacity="1"><g transform="translate(254.449205, 48.749995)"><g><path d="M 14.039062 -31.5 L 3.554688 -31.5 L 3.554688 -26.234375 L 8.550781 -18.359375 L 3.554688 -18.359375 L 3.554688 0 L 8.820312 0 L 8.820312 -13.140625 L 14.039062 -13.140625 C 14.039062 -13.140625 24.523438 -13.140625 24.523438 -22.320312 C 24.523438 -31.5 14.039062 -31.5 14.039062 -31.5 Z M 14.714844 -18.40625 L 9.808594 -26.234375 L 14.039062 -26.234375 C 14.039062 -26.234375 19.304688 -26.234375 19.304688 -22.320312 C 19.304688 -19.261719 16.109375 -18.585938 14.714844 -18.40625 Z M 14.714844 -18.40625 "/></g></g></g><g fill="#ffffff" fill-opacity="1"><g transform="translate(280.684177, 48.749995)"><g><path d="M 8.820312 -5.265625 L 8.820312 -31.5 L 3.554688 -31.5 L 3.554688 0 L 20.476562 0 L 20.476562 -5.265625 Z M 8.820312 -5.265625 "/></g></g></g><g fill="#ffffff" fill-opacity="1"><g transform="translate(303.22915, 48.749995)"><g><path d="M 18.089844 -3.644531 L 19.484375 0 L 25.15625 0 L 12.554688 -32.398438 L 0 0 L 5.671875 0 L 7.019531 -3.644531 Z M 8.730469 -8.191406 L 12.554688 -19.125 L 16.378906 -8.191406 Z M 8.730469 -8.191406 "/></g></g></g><g fill="#ffffff" fill-opacity="1"><g transform="translate(328.384121, 48.749995)"><g><path d="M 28.933594 -31.5 L 22.5 -31.5 L 14.488281 -20.25 L 6.433594 -31.5 L 0 -31.5 L 11.835938 -14.894531 L 11.835938 0 L 17.101562 0 L 17.101562 -14.894531 Z M 28.933594 -31.5 "/></g></g></g></svg>